<svg xmlns="http://www.w3.org/2000/svg" xmlns:xlink="http://www.w3.org/1999/xlink" viewBox="0,0,256,256" width="24px" height="24px" fill-rule="nonzero"><g fill="#949494" fill-rule="nonzero" stroke="none" stroke-width="1" stroke-linecap="butt" stroke-linejoin="miter" stroke-miterlimit="10" stroke-dasharray="" stroke-dashoffset="0" font-family="none" font-weight="none" font-size="none" text-anchor="none" style="mix-blend-mode: normal"><g transform="scale(10.66667,10.66667)"><path d="M20.606,17.96c-0.051,0.19 -0.206,0.346 -0.398,0.397c-0.906,0.242 -4.966,0.393 -8.208,0.393c-3.241,0 -7.301,-0.15 -8.21,-0.394c-0.19,-0.051 -0.346,-0.206 -0.397,-0.398c-0.27,-1.01 -0.393,-4.093 -0.393,-5.958c0,-1.866 0.123,-4.948 0.394,-5.96c0.051,-0.19 0.206,-0.345 0.398,-0.397c0.906,-0.242 4.966,-0.393 8.208,-0.393c3.242,0 7.302,0.151 8.21,0.394c0.19,0.051 0.346,0.206 0.397,0.398c0.27,1.01 0.393,4.093 0.393,5.958c0,1.865 -0.123,4.948 -0.394,5.96z" opacity="0.3"></path><path d="M21.582,6.186c-0.23,-0.86 -0.908,-1.538 -1.768,-1.768c-1.56,-0.418 -7.814,-0.418 -7.814,-0.418c0,0 -6.254,0 -7.814,0.418c-0.861,0.23 -1.538,0.908 -1.768,1.768c-0.418,1.56 -0.418,5.814 -0.418,5.814c0,0 0,4.254 0.418,5.814c0.23,0.861 0.908,1.538 1.768,1.768c1.56,0.418 7.814,0.418 7.814,0.418c0,0 6.254,0 7.814,-0.418c0.86,-0.23 1.538,-0.908 1.768,-1.768c0.418,-1.56 0.418,-5.814 0.418,-5.814c0,0 0,-4.254 -0.418,-5.814zM19.65,17.297c-0.045,0.169 -0.184,0.307 -0.354,0.353c-0.805,0.216 -4.414,0.35 -7.296,0.35c-2.881,0 -6.49,-0.134 -7.297,-0.35c-0.169,-0.045 -0.307,-0.184 -0.353,-0.354c-0.241,-0.898 -0.35,-3.638 -0.35,-5.296c0,-1.658 0.109,-4.398 0.35,-5.298c0.045,-0.168 0.184,-0.307 0.354,-0.352c0.805,-0.216 4.414,-0.35 7.296,-0.35c2.882,0 6.491,0.134 7.297,0.35c0.169,0.045 0.307,0.184 0.353,0.354c0.241,0.898 0.35,3.638 0.35,5.296c0,1.658 -0.109,4.398 -0.35,5.297z"></path><path d="M10,15.464v-6.928l6,3.464z"></path></g></g></svg>